HIERARCHY
ROOT reference
{
  OFFSET 0 0 0
  CHANNELS 6 Xposition Yposition Zposition Zrotation Xrotation Yrotation
  JOINT Hips
  {
    OFFSET 346.547 88.4868 223.89
    CHANNELS 3 Zrotation Xrotation Yrotation
    JOINT RightUpLeg
    {
      OFFSET -9.27468 -1.51611 -0.00175448
      CHANNELS 3 Zrotation Xrotation Yrotation
      JOINT RightLeg
      {
        OFFSET -0.00464511 -41.8738 0.0184652
        CHANNELS 3 Zrotation Xrotation Yrotation
        JOINT RightFoot
        {
          OFFSET -0.626239 -42.3044 -0.171503
          CHANNELS 3 Zrotation Xrotation Yrotation
          End Site
          {
            OFFSET 0 -7.69 17.5
          }
        }
      }
    }
    JOINT LeftUpLeg
    {
      OFFSET 9.30083 -1.68454 -0.0454748
      CHANNELS 3 Zrotation Xrotation Yrotation
      JOINT LeftLeg
      {
        OFFSET 0.0692631 -41.8513 -0.097029
        CHANNELS 3 Zrotation Xrotation Yrotation
        JOINT LeftFoot
        {
          OFFSET 0.520945 -41.523 0.446349
          CHANNELS 3 Zrotation Xrotation Yrotation
          End Site
          {
            OFFSET 0 -7.69 17.5
          }
        }
      }
    }
    JOINT Spine
    {
      OFFSET 0.0770133 14.2992 0.0590021
      CHANNELS 3 Zrotation Xrotation Yrotation
      JOINT Spine1
      {
        OFFSET 0.0471461 9.71665 0.020973
        CHANNELS 3 Zrotation Xrotation Yrotation
        JOINT Spine2
        {
          OFFSET 0.051283 10.117 0.000913966
          CHANNELS 3 Zrotation Xrotation Yrotation
          JOINT Spine3
          {
            OFFSET 0.0447963 9.71088 0.00221408
            CHANNELS 3 Zrotation Xrotation Yrotation
            JOINT Neck
            {
              OFFSET 0.115655 10.3749 0.0448519
              CHANNELS 3 Zrotation Xrotation Yrotation
              JOINT Head
              {
                OFFSET 0.0937003 9.47807 0.0215077
                CHANNELS 3 Zrotation Xrotation Yrotation
                End Site
                {
                  OFFSET 0 15.95 0
                }
              }
            }
            JOINT RightShoulder
            {
              OFFSET -3.17023 6.91072 -0.0050072
              CHANNELS 3 Zrotation Xrotation Yrotation
              JOINT RightArm
              {
                OFFSET -12.7573 0.00694711 0.0313031
                CHANNELS 3 Zrotation Xrotation Yrotation
                JOINT RightForeArm
                {
                  OFFSET -26.5152 -0.0619338 -0.0331286
                  CHANNELS 3 Zrotation Xrotation Yrotation
                  JOINT RightHand
                  {
                    OFFSET -25.9971 0.0398378 -0.0269922
                    CHANNELS 3 Zrotation Xrotation Yrotation
                    JOINT RightHandThumb1
                    {
                      OFFSET -2.48905 0.190105 3.12053
                      CHANNELS 3 Zrotation Xrotation Yrotation
                      JOINT RightHandThumb2
                      {
                        OFFSET -3.68274 0 0
                        CHANNELS 3 Zrotation Xrotation Yrotation
                        JOINT RightHandThumb3
                        {
                          OFFSET -2.55832 0 0
                          CHANNELS 3 Zrotation Xrotation Yrotation
                          End Site
                          {
                            OFFSET -2.194 0 0
                          }
                        }
                      }
                    }
                    JOINT RightInHandIndex
                    {
                      OFFSET -3.22368 0.508421 1.97842
                      CHANNELS 3 Zrotation Xrotation Yrotation
                      JOINT RightHandIndex1
                      {
                        OFFSET -5.21684 -0.091368 0.999158
                        CHANNELS 3 Zrotation Xrotation Yrotation
                        JOINT RightHandIndex2
                        {
                          OFFSET -3.61937 0 0
                          CHANNELS 3 Zrotation Xrotation Yrotation
                          JOINT RightHandIndex3
                          {
                            OFFSET -2.0521 0 0
                            CHANNELS 3 Zrotation Xrotation Yrotation
                            End Site
                            {
                              OFFSET -1.805 0 0
                            }
                          }
                        }
                      }
                    }
                    JOINT RightInHandMiddle
                    {
                      OFFSET -3.38211 0.517263 0.756737
                      CHANNELS 3 Zrotation Xrotation Yrotation
                      JOINT RightHandMiddle1
                      {
                        OFFSET -5.17411 -0.084 0.313895
                        CHANNELS 3 Zrotation Xrotation Yrotation
                        JOINT RightHandMiddle2
                        {
                          OFFSET -3.94947 0 0
                          CHANNELS 3 Zrotation Xrotation Yrotation
                          JOINT RightHandMiddle3
                          {
                            OFFSET -2.47579 0 0
                            CHANNELS 3 Zrotation Xrotation Yrotation
                            End Site
                            {
                              OFFSET -1.975 0 0
                            }
                          }
                        }
                      }
                    }
                    JOINT RightInHandRing
                    {
                      OFFSET -3.36516 0.537895 -0.128947
                      CHANNELS 3 Zrotation Xrotation Yrotation
                      JOINT RightHandRing1
                      {
                        OFFSET -4.63474 -0.022105 -0.478947
                        CHANNELS 3 Zrotation Xrotation Yrotation
                        JOINT RightHandRing2
                        {
                          OFFSET -3.44238 0 0
                          CHANNELS 3 Zrotation Xrotation Yrotation
                          JOINT RightHandRing3
                          {
                            OFFSET -2.3881 0 0
                            CHANNELS 3 Zrotation Xrotation Yrotation
                            End Site
                            {
                              OFFSET -1.857 0 0
                            }
                          }
                        }
                      }
                    }
                    JOINT RightInHandPinky
                    {
                      OFFSET -3.16105 0.469368 -1.20179
                      CHANNELS 3 Zrotation Xrotation Yrotation
                      JOINT RightHandPinky1
                      {
                        OFFSET -4.14105 -0.022105 -1.09053
                        CHANNELS 3 Zrotation Xrotation Yrotation
                        JOINT RightHandPinky2
                        {
                          OFFSET -2.75653 0 0
                          CHANNELS 3 Zrotation Xrotation Yrotation
                          JOINT RightHandPinky3
                          {
                            OFFSET -1.74189 0 0
                            CHANNELS 3 Zrotation Xrotation Yrotation
                            End Site
                            {
                              OFFSET -1.645 0 0
                            }
                          }
                        }
                      }
                    }
                  }
                }
              }
            }
            JOINT LeftShoulder
            {
              OFFSET 3.25178 6.92057 -0.0384945
              CHANNELS 3 Zrotation Xrotation Yrotation
              JOINT LeftArm
              {
                OFFSET 12.8462 -0.0383255 -0.0637898
                CHANNELS 3 Zrotation Xrotation Yrotation
                JOINT LeftForeArm
                {
                  OFFSET 26.4888 -0.0608964 -0.0673835
                  CHANNELS 3 Zrotation Xrotation Yrotation
                  JOINT LeftHand
                  {
                    OFFSET 25.9932 -0.0402352 -0.0274148
                    CHANNELS 3 Zrotation Xrotation Yrotation
                    JOINT LeftHandThumb1
                    {
                      OFFSET 2.48905 0.190105 3.12053
                      CHANNELS 3 Zrotation Xrotation Yrotation
                      JOINT LeftHandThumb2
                      {
                        OFFSET 3.68274 0 0
                        CHANNELS 3 Zrotation Xrotation Yrotation
                        JOINT LeftHandThumb3
                        {
                          OFFSET 2.55832 0 0
                          CHANNELS 3 Zrotation Xrotation Yrotation
                          End Site
                          {
                            OFFSET 2.194 0 0
                          }
                        }
                      }
                    }
                    JOINT LeftInHandIndex
                    {
                      OFFSET 3.22368 0.508421 1.97842
                      CHANNELS 3 Zrotation Xrotation Yrotation
                      JOINT LeftHandIndex1
                      {
                        OFFSET 5.21684 -0.091368 0.999158
                        CHANNELS 3 Zrotation Xrotation Yrotation
                        JOINT LeftHandIndex2
                        {
                          OFFSET 3.61937 0 0
                          CHANNELS 3 Zrotation Xrotation Yrotation
                          JOINT LeftHandIndex3
                          {
                            OFFSET 2.0521 0 0
                            CHANNELS 3 Zrotation Xrotation Yrotation
                            End Site
                            {
                              OFFSET 1.805 0 0
                            }
                          }
                        }
                      }
                    }
                    JOINT LeftInHandMiddle
                    {
                      OFFSET 3.38211 0.517263 0.756737
                      CHANNELS 3 Zrotation Xrotation Yrotation
                      JOINT LeftHandMiddle1
                      {
                        OFFSET 5.17411 -0.084 0.313895
                        CHANNELS 3 Zrotation Xrotation Yrotation
                        JOINT LeftHandMiddle2
                        {
                          OFFSET 3.94947 0 0
                          CHANNELS 3 Zrotation Xrotation Yrotation
                          JOINT LeftHandMiddle3
                          {
                            OFFSET 2.47579 0 0
                            CHANNELS 3 Zrotation Xrotation Yrotation
                            End Site
                            {
                              OFFSET 1.975 0 0
                            }
                          }
                        }
                      }
                    }
                    JOINT LeftInHandRing
                    {
                      OFFSET 3.36516 0.537895 -0.128947
                      CHANNELS 3 Zrotation Xrotation Yrotation
                      JOINT LeftHandRing1
                      {
                        OFFSET 4.63474 -0.022105 -0.478947
                        CHANNELS 3 Zrotation Xrotation Yrotation
                        JOINT LeftHandRing2
                        {
                          OFFSET 3.44238 0 0
                          CHANNELS 3 Zrotation Xrotation Yrotation
                          JOINT LeftHandRing3
                          {
                            OFFSET 2.3881 0 0
                            CHANNELS 3 Zrotation Xrotation Yrotation
                            End Site
                            {
                              OFFSET 1.857 0 0
                            }
                          }
                        }
                      }
                    }
                    JOINT LeftInHandPinky
                    {
                      OFFSET 3.16105 0.469368 -1.20179
                      CHANNELS 3 Zrotation Xrotation Yrotation
                      JOINT LeftHandPinky1
                      {
                        OFFSET 4.14105 -0.022105 -1.09053
                        CHANNELS 3 Zrotation Xrotation Yrotation
                        JOINT LeftHandPinky2
                        {
                          OFFSET 2.75653 0 0
                          CHANNELS 3 Zrotation Xrotation Yrotation
                          JOINT LeftHandPinky3
                          {
                            OFFSET 1.74189 0 0
                            CHANNELS 3 Zrotation Xrotation Yrotation
                            End Site
                            {
                              OFFSET 1.645 0 0
                            }
                          }
                        }
                      }
                    }
                  }
                }
              }
            }
          }
        }
      }
    }
  }
}
MOTION
Frames: 2
Frame Time: 0.00833333
4.500000000000000000e+02 0.000000000000000000e+00 0.000000000000000000e+00 0.000000000000000000e+00 0.000000000000000000e+00 0.000000000000000000e+00 3.283969894394751510e-01 8.622533489579492505e-01 6.287514036168203591e-01 -6.277249602703092179e-01 -5.705893862334606714e-01 -7.649990411266781587e-01 -1.462901981221603198e-01 2.725445791072662050e-01 -8.100552228358580409e-02 3.666079195495041687e-01 -7.702947524411806191e-01 -6.972309057777006380e-01 4.535525312194027894e-03 -1.421203755335129992e+00 -8.589818116220377942e-01 4.854062614170899792e-01 4.871341011942175170e-01 -2.248624573782926628e-01 -1.031090917167213836e-02 3.163977819783674317e-01 -6.141467180472251486e-02 4.874361456046114593e-01 9.701626316961713126e-02 -1.270550688728691480e+00 1.095712871395593951e-01 1.254228674955776002e-01 -3.354951040753704761e-01 1.919009912954720287e-01 2.184909438457653397e-01 -5.484019312315275840e-01 -2.161700459894179069e-02 -1.703345492192970267e-02 5.316432027636356500e-02 5.354802269269482579e-02 1.323492319190037736e-01 -9.607799517862954941e-01 -7.684073528904556971e-01 -5.149756432382671667e-01 2.115487288165003310e+00 2.632890073113356433e-01 -3.621548559094694419e-01 5.623538700465594564e-01 -2.504780905964990589e-01 5.399146026356752559e-01 -8.713336352663944018e-01 -1.991763155856654199e+00 5.566960124716882952e+00 1.658631433808843259e+00 -2.755817914704357108e-01 -1.055934148883840074e+00 3.545078353546868843e+00 0.000000000000000000e+00 0.000000000000000000e+00 0.000000000000000000e+00 1.522311443181570514e-15 -1.848134597665456354e-15 0.000000000000000000e+00 3.698928576154892953e-15 -1.077888402328564492e-15 0.000000000000000000e+00 6.832848786626229665e-15 1.656994001259123769e-15 -3.077836016172141955e-16 0.000000000000000000e+00 0.000000000000000000e+00 0.000000000000000000e+00 0.000000000000000000e+00 6.408680277332927532e-16 4.351277596683842944e-15 0.000000000000000000e+00 4.279631417147327827e-16 3.242509055404623797e-15 6.832848786626229665e-15 1.656994001259123769e-15 -3.077836016172141955e-16 0.000000000000000000e+00 1.926777642091576095e-15 -1.558042525985283040e-15 0.000000000000000000e+00 6.164241274658716213e-16 6.100122056395051439e-15 0.000000000000000000e+00 1.663496276255724756e-15 -1.143122189012931408e-15 6.832848786626229665e-15 1.656994001259123769e-15 -3.077836016172141955e-16 0.000000000000000000e+00 0.000000000000000000e+00 0.000000000000000000e+00 0.000000000000000000e+00 1.730031912117685545e-15 5.117603876884716759e-15 0.000000000000000000e+00 3.062654306505544383e-16 2.910584186795441593e-15 6.832848786626229665e-15 1.656994001259123769e-15 -3.077836016172141955e-16 0.000000000000000000e+00 0.000000000000000000e+00 0.000000000000000000e+00 0.000000000000000000e+00 1.899538076433256579e-15 5.205151694645110683e-15 0.000000000000000000e+00 2.352259971605663354e-15 -1.529546550238229293e-15 7.477590753297025383e-02 7.990526040391631168e-01 3.264693697246439652e-01 -1.406289360062251248e+00 -4.059896455303903195e+00 1.026378723274717242e+00 -1.473298033113312400e+01 4.066711625942593500e+00 -1.617643718701860323e+01 -7.360609066509585796e-01 -2.510263683891363340e-01 -2.326267717028772886e+00 0.000000000000000000e+00 0.000000000000000000e+00 0.000000000000000000e+00 9.999485475234901806e-16 3.511788663181272860e-16 0.000000000000000000e+00 1.683845041437898230e-15 2.816133333547873385e-16 0.000000000000000000e+00 -1.002035007649620802e-15 -1.004691465376486278e-16 -1.530770358432341449e-15 0.000000000000000000e+00 0.000000000000000000e+00 0.000000000000000000e+00 0.000000000000000000e+00 2.412850715817009455e-15 6.024767630242111580e-16 0.000000000000000000e+00 4.091909162422453313e-16 -2.970074413058229290e-15 -1.002035007649620802e-15 -1.004691465376486278e-16 -1.530770358432341449e-15 0.000000000000000000e+00 1.629371075062664045e-15 -5.848792205714866269e-16 0.000000000000000000e+00 -3.214272675600346841e-18 -2.134357160793089155e-15 0.000000000000000000e+00 1.419131604693409559e-15 -2.114125665289594676e-15 -1.002035007649620802e-15 -1.004691465376486278e-16 -1.530770358432341449e-15 0.000000000000000000e+00 0.000000000000000000e+00 0.000000000000000000e+00 0.000000000000000000e+00 -7.803982143124033410e-16 -1.455843228941098021e-15 0.000000000000000000e+00 4.645587748240873196e-17 -3.307745735141117095e-15 -1.002035007649620802e-15 -1.004691465376486278e-16 -1.530770358432341449e-15 0.000000000000000000e+00 0.000000000000000000e+00 0.000000000000000000e+00 0.000000000000000000e+00 4.126836715484167740e-17 -3.360230990184077925e-15 0.000000000000000000e+00 -2.516031414893283809e-15 -1.803368350837240814e-15
4.500000000000000000e+02 0.000000000000000000e+00 0.000000000000000000e+00 0.000000000000000000e+00 0.000000000000000000e+00 0.000000000000000000e+00 3.306616968795176303e-01 9.745645358643162393e-01 8.018312485775490606e-01 -7.310332416700769942e-01 -6.656655007049562256e-01 -8.703259152743375582e-01 -9.169349168413346018e-02 3.541770580410911751e-01 -1.499155926490629565e-01 3.581796387551011707e-01 -8.046300972642542737e-01 -7.942278560030547885e-01 -7.723502610175880800e-02 -1.585120298965676078e+00 -9.454212204902513461e-01 6.029848621306184153e-01 4.885151248671036894e-01 -3.202508855444647917e-01 -1.805963598864510078e-02 3.643790811786179473e-01 -1.324291787314150481e-01 5.417897291673360316e-01 8.831819837949574092e-02 -1.460124468532211006e+00 1.214329892492370944e-01 1.286585645750523421e-01 -3.837376442221507311e-01 2.122347073456967159e-01 2.279098184717305575e-01 -6.237111492316098627e-01 -1.993072592078296359e-02 -1.856303170402178251e-02 5.391519723434665123e-02 7.554687601762369309e-02 1.317429811843972010e-01 -8.016033000950321119e-01 -7.472296518709669044e-01 -5.391853128153514252e-01 2.092144108074482034e+00 3.255340285779227960e-01 -3.994278950848390575e-01 7.872715813794163298e-01 -1.749676531524727852e-01 7.359485802579923686e-01 -8.263409985430115734e-01 -1.847409453225262510e+00 5.397821934412101008e+00 1.603577132230254554e+00 -4.774958345774309998e-01 -1.049953119140440538e+00 3.992295590888764512e+00 0.000000000000000000e+00 0.000000000000000000e+00 0.000000000000000000e+00 1.011946233163274736e-15 -1.561761128605685149e-15 0.000000000000000000e+00 4.615113923166774276e-15 -6.061885214335239194e-16 0.000000000000000000e+00 6.368914042063133611e-15 1.971621577871708488e-15 -5.029539690228678681e-16 0.000000000000000000e+00 0.000000000000000000e+00 0.000000000000000000e+00 0.000000000000000000e+00 4.921830683373301783e-16 4.712696512358798312e-15 0.000000000000000000e+00 3.872483063812500889e-17 3.030501323932828965e-15 6.368914042063133611e-15 1.971621577871708488e-15 -5.029539690228678681e-16 0.000000000000000000e+00 1.715260320038710323e-15 -1.811976383265319493e-15 0.000000000000000000e+00 6.692840237484336834e-16 6.323630262086886284e-15 0.000000000000000000e+00 1.473556906279024748e-15 -1.184791808598721071e-15 6.368914042063133611e-15 1.971621577871708488e-15 -5.029539690228678681e-16 0.000000000000000000e+00 0.000000000000000000e+00 0.000000000000000000e+00 0.000000000000000000e+00 1.957650089871783038e-15 5.559094120170847768e-15 0.000000000000000000e+00 1.606290470708711138e-17 3.176377324523395725e-15 6.368914042063133611e-15 1.971621577871708488e-15 -5.029539690228678681e-16 0.000000000000000000e+00 0.000000000000000000e+00 0.000000000000000000e+00 0.000000000000000000e+00 2.174706519374654998e-15 5.176626202524661527e-15 0.000000000000000000e+00 2.222276596004073711e-15 -1.238014874762183764e-15 1.282135590159903527e-01 8.834562017651036436e-01 8.123114080868377718e-01 -1.244151137719105460e+00 -4.108352292835476760e+00 9.513032776759020592e-01 -1.386794869026197929e+01 4.124819733085556273e+00 -1.541508173389038383e+01 -7.992662904121151657e-01 -2.274440668001286303e-01 -2.084473830783220460e+00 0.000000000000000000e+00 0.000000000000000000e+00 0.000000000000000000e+00 6.347931671491619303e-16 9.030065825931921604e-16 0.000000000000000000e+00 2.305188558079445310e-15 2.426562509099169038e-16 0.000000000000000000e+00 -9.243736833077091570e-16 -9.981208643221585743e-17 -1.667258757225359679e-15 0.000000000000000000e+00 0.000000000000000000e+00 0.000000000000000000e+00 0.000000000000000000e+00 2.234941187604765233e-15 1.005910713948760684e-15 0.000000000000000000e+00 3.911888535583370840e-16 -2.944814115316814694e-15 -9.243736833077091570e-16 -9.981208643221585743e-17 -1.667258757225359679e-15 0.000000000000000000e+00 1.997467397689396598e-15 -4.522537886636982332e-16 0.000000000000000000e+00 -1.318166571124188574e-16 -2.230360514306144497e-15 0.000000000000000000e+00 1.225553410492886351e-15 -2.086273295009661254e-15 -9.243736833077091570e-16 -9.981208643221585743e-17 -1.667258757225359679e-15 0.000000000000000000e+00 0.000000000000000000e+00 0.000000000000000000e+00 0.000000000000000000e+00 -8.613897478667449125e-16 -1.601201445477287079e-15 0.000000000000000000e+00 9.915449386114269763e-17 -3.103977946265236234e-15 -9.243736833077091570e-16 -9.981208643221585743e-17 -1.667258757225359679e-15 0.000000000000000000e+00 0.000000000000000000e+00 0.000000000000000000e+00 0.000000000000000000e+00 1.943104386885000251e-16 -3.003728074743519184e-15 0.000000000000000000e+00 -2.298053829674673013e-15 -1.374388470121066004e-15
